<svg width="123" height="40" viewBox="0 0 123 40" fill="none" xmlns="http://www.w3.org/2000/svg">
<path d="M41.1862 30.549L43.5248 22.97H45.1273L47.4659 30.549H46.524L45.9393 28.6326H42.7128L42.1281 30.549H41.1862ZM42.9402 27.8098H45.7011L44.4018 23.5222H44.2503L42.9402 27.8098Z" fill="#757575"/>
<path d="M51.6114 30.7006C51.099 30.7006 50.637 30.5923 50.2256 30.3758C49.8213 30.152 49.5001 29.8344 49.2619 29.423C49.031 29.0116 48.9155 28.5243 48.9155 27.9613V27.8422C48.9155 27.272 49.031 26.7848 49.2619 26.3806C49.5001 25.9691 49.8213 25.6552 50.2256 25.4386C50.637 25.2149 51.099 25.103 51.6114 25.103C52.1167 25.103 52.5462 25.1968 52.8999 25.3845C53.2608 25.5721 53.5423 25.8212 53.7444 26.1316C53.9537 26.4419 54.0872 26.774 54.145 27.1276L53.3113 27.3009C53.2752 27.041 53.1886 26.8028 53.0514 26.5863C52.9215 26.3697 52.7375 26.1965 52.4993 26.0666C52.2611 25.9367 51.9687 25.8717 51.6223 25.8717C51.2686 25.8717 50.951 25.9511 50.6695 26.1099C50.3952 26.2687 50.175 26.4961 50.009 26.792C49.8502 27.0879 49.7708 27.4416 49.7708 27.8531V27.9505C49.7708 28.3619 49.8502 28.7156 50.009 29.0116C50.175 29.3075 50.3952 29.5349 50.6695 29.6937C50.951 29.8525 51.2686 29.9319 51.6223 29.9319C52.1492 29.9319 52.5498 29.7947 52.8241 29.5204C53.1056 29.2462 53.2788 28.9069 53.3438 28.5027L54.1883 28.6868C54.1089 29.0332 53.9645 29.3616 53.7552 29.672C53.5459 29.9824 53.2608 30.2314 52.8999 30.4191C52.5462 30.6068 52.1167 30.7006 51.6114 30.7006Z" fill="#757575"/>
<path d="M57.8117 30.7006C57.4435 30.7006 57.1079 30.6356 56.8047 30.5057C56.5016 30.3758 56.2634 30.1881 56.0902 29.9427C55.9169 29.6973 55.8303 29.3977 55.8303 29.0441C55.8303 28.6831 55.9169 28.3872 56.0902 28.1562C56.2634 27.918 56.5016 27.7412 56.8047 27.6257C57.1079 27.503 57.4472 27.4416 57.8225 27.4416H59.609V27.0519C59.609 26.6765 59.4971 26.3806 59.2733 26.164C59.0568 25.9475 58.732 25.8392 58.2989 25.8392C57.873 25.8392 57.541 25.9439 57.3028 26.1532C57.0646 26.3553 56.9022 26.6296 56.8156 26.9761L56.0144 26.7162C56.101 26.4203 56.2381 26.1532 56.4258 25.915C56.6135 25.6696 56.8625 25.4747 57.1729 25.3303C57.4905 25.1788 57.8694 25.103 58.3097 25.103C58.9882 25.103 59.5151 25.2798 59.8905 25.6335C60.2658 25.98 60.4535 26.4708 60.4535 27.106V29.4988C60.4535 29.7153 60.5545 29.8236 60.7566 29.8236H61.2439V30.549H60.4968C60.2586 30.549 60.0673 30.4841 59.923 30.3541C59.7786 30.217 59.7064 30.0365 59.7064 29.8128V29.7586H59.5765C59.4971 29.8958 59.3888 30.0401 59.2517 30.1917C59.1217 30.3361 58.9413 30.4552 58.7103 30.549C58.4793 30.6501 58.1798 30.7006 57.8117 30.7006ZM57.9091 29.9644C58.4144 29.9644 58.8222 29.8164 59.1326 29.5204C59.4502 29.2173 59.609 28.795 59.609 28.2537V28.1346H57.855C57.5157 28.1346 57.2342 28.2104 57.0105 28.3619C56.7939 28.5063 56.6856 28.7265 56.6856 29.0224C56.6856 29.3183 56.7975 29.5493 57.0213 29.7153C57.2523 29.8813 57.5482 29.9644 57.9091 29.9644Z" fill="#757575"/>
<path d="M65.0499 30.7006C64.5951 30.7006 64.1765 30.5923 63.7939 30.3758C63.4114 30.1592 63.1082 29.8453 62.8844 29.4338C62.6607 29.0224 62.5488 28.5352 62.5488 27.9722V27.8314C62.5488 27.2684 62.6607 26.7848 62.8844 26.3806C63.1082 25.9691 63.4077 25.6552 63.7831 25.4386C64.1656 25.2149 64.5879 25.103 65.0499 25.103C65.418 25.103 65.7284 25.1535 65.981 25.2546C66.2408 25.3484 66.4502 25.4711 66.609 25.6227C66.7678 25.767 66.8905 25.9222 66.9771 26.0882H67.1287V22.97H67.984V30.549H67.1503V29.672H66.9987C66.8544 29.9391 66.6306 30.1773 66.3275 30.3866C66.0243 30.5959 65.5984 30.7006 65.0499 30.7006ZM65.2772 29.9427C65.8258 29.9427 66.2697 29.7695 66.609 29.423C66.9554 29.0693 67.1287 28.5785 67.1287 27.9505V27.8531C67.1287 27.2251 66.9554 26.7379 66.609 26.3914C66.2697 26.0377 65.8258 25.8609 65.2772 25.8609C64.7359 25.8609 64.2884 26.0377 63.9347 26.3914C63.5882 26.7379 63.415 27.2251 63.415 27.8531V27.9505C63.415 28.5785 63.5882 29.0693 63.9347 29.423C64.2884 29.7695 64.7359 29.9427 65.2772 29.9427Z" fill="#757575"/>
<path d="M72.7431 30.7006C72.209 30.7006 71.7398 30.5887 71.3356 30.365C70.9314 30.134 70.6174 29.8128 70.3936 29.4013C70.1699 28.9899 70.058 28.5135 70.058 27.9722V27.8422C70.058 27.2937 70.1699 26.8137 70.3936 26.4022C70.6174 25.9908 70.9278 25.6732 71.3248 25.4494C71.7218 25.2185 72.1765 25.103 72.689 25.103C73.187 25.103 73.6274 25.2112 74.0099 25.4278C74.3925 25.6371 74.692 25.9403 74.9086 26.3373C75.1251 26.7343 75.2334 27.1998 75.2334 27.734V28.1237H70.9133C70.935 28.694 71.1191 29.1415 71.4655 29.4663C71.812 29.7839 72.2451 29.9427 72.7648 29.9427C73.2195 29.9427 73.5696 29.838 73.815 29.6287C74.0604 29.4194 74.2481 29.1704 74.378 28.8816L75.1143 29.2389C75.006 29.4627 74.8544 29.6865 74.6595 29.9102C74.4719 30.134 74.2228 30.3217 73.9125 30.4732C73.6093 30.6248 73.2195 30.7006 72.7431 30.7006ZM70.9242 27.42H74.3672C74.3383 26.9292 74.1687 26.5466 73.8583 26.2723C73.5552 25.998 73.1654 25.8609 72.689 25.8609C72.2054 25.8609 71.8084 25.998 71.498 26.2723C71.1876 26.5466 70.9964 26.9292 70.9242 27.42Z" fill="#757575"/>
<path d="M77.2667 30.549V25.2546H78.1004V25.915H78.2519C78.353 25.7273 78.519 25.5541 78.75 25.3953C78.981 25.2365 79.3058 25.1571 79.7244 25.1571C80.1359 25.1571 80.4679 25.2473 80.7205 25.4278C80.9804 25.6082 81.1681 25.8284 81.2835 26.0882H81.4351C81.5578 25.8284 81.7419 25.6082 81.9873 25.4278C82.2399 25.2473 82.59 25.1571 83.0375 25.1571C83.3912 25.1571 83.7016 25.2293 83.9687 25.3737C84.2357 25.518 84.4451 25.7273 84.5966 26.0016C84.7554 26.2687 84.8348 26.5899 84.8348 26.9652V30.549H83.9795V27.041C83.9795 26.6873 83.8748 26.4094 83.6655 26.2073C83.4634 25.998 83.1783 25.8934 82.8102 25.8934C82.4204 25.8934 82.0992 26.0197 81.8466 26.2723C81.6011 26.5249 81.4784 26.8895 81.4784 27.3658V30.549H80.6231V27.041C80.6231 26.6873 80.5184 26.4094 80.3091 26.2073C80.107 25.998 79.8219 25.8934 79.4538 25.8934C79.064 25.8934 78.7428 26.0197 78.4901 26.2723C78.2447 26.5249 78.122 26.8895 78.122 27.3658V30.549H77.2667Z" fill="#757575"/>
<path d="M87.6774 32.7145V31.9566H90.709C90.9183 31.9566 91.023 31.8483 91.023 31.6317V29.7045H90.8714C90.7992 29.8561 90.6873 30.0077 90.5358 30.1592C90.3914 30.3036 90.2001 30.4227 89.9619 30.5165C89.7237 30.6032 89.4242 30.6465 89.0633 30.6465C88.6807 30.6465 88.327 30.5635 88.0022 30.3974C87.6846 30.2314 87.432 29.986 87.2443 29.6612C87.0639 29.3364 86.9736 28.9394 86.9736 28.4702V25.2546H87.829V28.4053C87.829 28.925 87.9589 29.3039 88.2187 29.5421C88.4858 29.7803 88.8431 29.8994 89.2906 29.8994C89.7959 29.8994 90.2109 29.7334 90.5358 29.4013C90.8606 29.0693 91.023 28.5749 91.023 27.918V25.2546H91.8783V31.7833C91.8783 32.072 91.7953 32.2994 91.6293 32.4654C91.4705 32.6314 91.2359 32.7145 90.9255 32.7145H87.6774Z" fill="#757575"/>
<path d="M44.4974 19.1069C43.2775 19.1069 42.311 18.7691 41.5979 18.0935C40.8847 17.4085 40.5281 16.4326 40.5281 15.1658V12.8012C40.5281 11.5344 40.8847 10.5632 41.5979 9.8876C42.311 9.2026 43.2775 8.8601 44.4974 8.8601C45.7079 8.8601 46.6415 9.19322 47.2984 9.85945C47.9646 10.5163 48.2977 11.4218 48.2977 12.576V12.6604H46.4679V12.5197C46.4679 11.9379 46.3037 11.4593 45.9753 11.084C45.6562 10.7087 45.1636 10.521 44.4974 10.521C43.8405 10.521 43.3244 10.7227 42.9491 11.1262C42.5738 11.5297 42.3861 12.0786 42.3861 12.773V15.194C42.3861 15.879 42.5738 16.4279 42.9491 16.8408C43.3244 17.2443 43.8405 17.446 44.4974 17.446C45.1636 17.446 45.6562 17.2584 45.9753 16.883C46.3037 16.4983 46.4679 16.0197 46.4679 15.4473V15.194H48.2977V15.391C48.2977 16.5452 47.9646 17.4554 47.2984 18.1216C46.6415 18.7785 45.7079 19.1069 44.4974 19.1069Z" fill="#8368CC"/>
<path d="M53.0207 19.1069C52.5234 19.1069 52.0777 19.0225 51.6836 18.8535C51.2895 18.6753 50.9751 18.4219 50.7405 18.0935C50.5153 17.7557 50.4027 17.3475 50.4027 16.8689C50.4027 16.3904 50.5153 15.9916 50.7405 15.6725C50.9751 15.3441 51.2942 15.1001 51.6976 14.9406C52.1105 14.7717 52.5797 14.6873 53.1052 14.6873H55.0194V14.2932C55.0194 13.9647 54.9162 13.6973 54.7098 13.4909C54.5033 13.275 54.1749 13.1671 53.7245 13.1671C53.2835 13.1671 52.955 13.2704 52.7392 13.4768C52.5234 13.6738 52.3826 13.9319 52.317 14.2509L50.6842 13.702C50.7968 13.3454 50.9751 13.0217 51.2191 12.7308C51.4724 12.4305 51.8056 12.1913 52.2184 12.013C52.6407 11.8253 53.1521 11.7315 53.7526 11.7315C54.6722 11.7315 55.3994 11.9614 55.9343 12.4211C56.4692 12.8809 56.7366 13.5472 56.7366 14.4198V17.0238C56.7366 17.3053 56.868 17.446 57.1307 17.446H57.6937V18.9099H56.5114C56.1642 18.9099 55.878 18.8254 55.6528 18.6565C55.4276 18.4876 55.315 18.2624 55.315 17.9809V17.9668H55.0476C55.01 18.0794 54.9256 18.2295 54.7942 18.4172C54.6628 18.5955 54.4564 18.755 54.1749 18.8958C53.8934 19.0365 53.5087 19.1069 53.0207 19.1069ZM53.3304 17.6712C53.8277 17.6712 54.2312 17.5352 54.5409 17.263C54.8599 16.9815 55.0194 16.6109 55.0194 16.1511V16.0103H53.2319C52.9034 16.0103 52.6454 16.0807 52.4577 16.2215C52.27 16.3622 52.1762 16.5593 52.1762 16.8126C52.1762 17.066 52.2747 17.2724 52.4718 17.4319C52.6688 17.5915 52.955 17.6712 53.3304 17.6712Z" fill="#8368CC"/>
<path d="M59.9757 18.9099V11.9285H61.721V12.6886H61.9744C62.0963 12.454 62.2981 12.2522 62.5796 12.0833C62.8611 11.9051 63.2318 11.8159 63.6915 11.8159C64.1889 11.8159 64.5877 11.9144 64.8879 12.1115C65.1882 12.2992 65.4181 12.5478 65.5776 12.8575H65.831C65.9905 12.5572 66.2157 12.3085 66.5066 12.1115C66.7975 11.9144 67.2104 11.8159 67.7452 11.8159C68.1769 11.8159 68.5663 11.9097 68.9135 12.0974C69.2701 12.2757 69.5516 12.5525 69.758 12.9279C69.9738 13.2938 70.0817 13.7583 70.0817 14.3213V18.9099H68.3082V14.448C68.3082 14.0633 68.2097 13.7771 68.0127 13.5894C67.8156 13.3923 67.5388 13.2938 67.1822 13.2938C66.7787 13.2938 66.4644 13.4252 66.2392 13.6879C66.0234 13.9413 65.9154 14.3072 65.9154 14.7858V18.9099H64.142V14.448C64.142 14.0633 64.0434 13.7771 63.8464 13.5894C63.6493 13.3923 63.3725 13.2938 63.0159 13.2938C62.6124 13.2938 62.2981 13.4252 62.0729 13.6879C61.8571 13.9413 61.7492 14.3072 61.7492 14.7858V18.9099H59.9757Z" fill="#8368CC"/>
<path d="M72.9744 21.7249V11.9285H74.7197V12.773H74.9731C75.1326 12.5009 75.3813 12.2616 75.7191 12.0552C76.0569 11.8394 76.5402 11.7315 77.1688 11.7315C77.7319 11.7315 78.2526 11.8722 78.7312 12.1537C79.2098 12.4258 79.5945 12.8293 79.8854 13.3642C80.1763 13.8991 80.3217 14.5465 80.3217 15.3066V15.5318C80.3217 16.2918 80.1763 16.9393 79.8854 17.4742C79.5945 18.009 79.2098 18.4172 78.7312 18.6987C78.2526 18.9708 77.7319 19.1069 77.1688 19.1069C76.7466 19.1069 76.39 19.0553 76.0991 18.9521C75.8176 18.8582 75.5877 18.7363 75.4094 18.5861C75.2405 18.4266 75.1045 18.2671 75.0013 18.1076H74.7479V21.7249H72.9744ZM76.634 17.5586C77.1876 17.5586 77.6427 17.385 77.9993 17.0378C78.3652 16.6813 78.5482 16.1652 78.5482 15.4896V15.3488C78.5482 14.6732 78.3652 14.1618 77.9993 13.8146C77.6333 13.458 77.1782 13.2797 76.634 13.2797C76.0897 13.2797 75.6346 13.458 75.2687 13.8146C74.9027 14.1618 74.7197 14.6732 74.7197 15.3488V15.4896C74.7197 16.1652 74.9027 16.6813 75.2687 17.0378C75.6346 17.385 76.0897 17.5586 76.634 17.5586Z" fill="#8368CC"/>
<path d="M82.8791 18.9099V9.05716H84.7371V17.2208H89.2411V18.9099H82.8791Z" fill="#8368CC"/>
<path d="M92.3094 21.7249V20.1766H96.1098C96.3725 20.1766 96.5039 20.0359 96.5039 19.7544V17.995H96.2505C96.1755 18.1545 96.0582 18.314 95.8986 18.4735C95.7391 18.633 95.5233 18.7644 95.2512 18.8676C94.9791 18.9708 94.6319 19.0225 94.2096 19.0225C93.6654 19.0225 93.1868 18.9005 92.7739 18.6565C92.3704 18.4031 92.0561 18.056 91.8309 17.6149C91.6057 17.1739 91.4931 16.6672 91.4931 16.0948V11.9285H93.2666V15.954C93.2666 16.4795 93.3932 16.8736 93.6466 17.1364C93.9093 17.3991 94.28 17.5305 94.7585 17.5305C95.3028 17.5305 95.725 17.3522 96.0253 16.9956C96.3256 16.6297 96.4757 16.1229 96.4757 15.4755V11.9285H98.2492V20.1485C98.2492 20.627 98.1085 21.0071 97.827 21.2886C97.5455 21.5795 97.1701 21.7249 96.7009 21.7249H92.3094Z" fill="#8368CC"/>
<path d="M102.362 18.9099V13.3923H100.589V11.9285H102.362V10.6336C102.362 10.155 102.503 9.77499 102.784 9.49349C103.075 9.2026 103.451 9.05716 103.91 9.05716H105.74V10.521H104.53C104.267 10.521 104.136 10.6617 104.136 10.9432V11.9285H105.965V13.3923H104.136V18.9099H102.362Z" fill="#8368CC"/>
<path d="M110.861 18.9099C110.401 18.9099 110.025 18.7691 109.735 18.4876C109.453 18.1967 109.312 17.812 109.312 17.3334V13.3923H107.567V11.9285H109.312V9.76092H111.086V11.9285H113V13.3923H111.086V17.0238C111.086 17.3053 111.217 17.446 111.48 17.446H112.831V18.9099H110.861Z" fill="#8368CC"/>
<path d="M21.8153 7.00964C24.6612 6.99862 27.5085 7.01514 30.3544 7C29.4759 7.8301 28.6441 8.70839 27.7821 9.55363C27.459 9.89779 27.0974 10.2006 26.7716 10.542C26.0773 11.2441 25.372 11.9338 24.6846 12.64C21.8511 12.6249 19.0175 12.64 16.1854 12.6331C16.6748 12.1857 17.1285 11.6998 17.6015 11.2372C19.0024 9.8262 20.4171 8.42618 21.8153 7.00964Z" fill="#432B85"/>
<path d="M16.1593 12.9374C18.9062 12.9346 21.6531 12.9484 24.3986 12.9305C23.4995 13.795 22.632 14.6926 21.7452 15.5708C20.6687 16.6487 19.5922 17.7253 18.5157 18.8032C18.4181 18.7908 18.3205 18.7839 18.2243 18.7853C15.4856 18.7894 12.7469 18.7825 10.0096 18.7894C10.8868 17.9097 11.7639 17.0301 12.6438 16.1532C13.0123 15.7553 13.4316 15.407 13.8083 15.0174C14.4723 14.3484 15.1419 13.6849 15.8046 13.0145C15.8884 12.9002 16.0397 12.9484 16.1593 12.9374Z" fill="#432B85"/>
<path d="M18.8402 18.9683C20.7856 17.0067 22.7461 15.0615 24.6956 13.1053C26.6575 15.0546 28.6001 17.0232 30.5647 18.9697C30.2636 19.2272 30.0079 19.5286 29.7178 19.7971C29.4814 20.0655 29.1927 20.2803 28.9521 20.546C27.5374 21.9653 26.1158 23.3804 24.697 24.7956C23.0884 23.1849 21.4743 21.5798 19.8685 19.965C19.5303 19.6291 19.1935 19.2905 18.8402 18.9683Z" fill="#8368CC"/>
<path d="M10 19.1776C12.8005 19.1872 15.6011 19.1776 18.403 19.1817C18.491 19.1693 18.557 19.2272 18.6133 19.285C19.562 20.2335 20.5092 21.1833 21.4551 22.1346C22.2003 22.8215 22.8918 23.5649 23.6177 24.2711C23.8665 24.5299 24.1333 24.7722 24.3725 25.0406C22.988 25.0131 21.6022 25.0365 20.2177 25.0282C18.7646 25.0337 17.3127 25.02 15.8595 25.0365C13.9045 23.0858 11.9564 21.1269 10 19.1776Z" fill="#432B85"/>
<path d="M16.1634 25.3338C18.9983 25.3311 21.8346 25.3283 24.6681 25.3352C25.1149 25.7344 25.5205 26.1818 25.9508 26.6003C27.4109 28.0527 28.8531 29.5243 30.3255 30.967C27.5209 30.956 24.7162 30.967 21.9129 30.9628C21.8882 30.9573 21.8387 30.9491 21.814 30.9436C21.2929 30.4287 20.7773 29.9097 20.2618 29.3894C19.0107 28.2206 17.8476 26.9555 16.5992 25.784C16.4549 25.6339 16.3036 25.488 16.1634 25.3338Z" fill="#432B85"/>
</svg>
